<?xml version="1.0" standalone="no"?>
<!DOCTYPE svg PUBLIC "-//W3C//DTD SVG 20010904//EN"
 "http://www.w3.org/TR/2001/REC-SVG-20010904/DTD/svg10.dtd">
<svg version="1.0" xmlns="http://www.w3.org/2000/svg"
 width="700.000000pt" height="700.000000pt" viewBox="0 0 700.000000 700.000000"
 preserveAspectRatio="xMidYMid meet">
<metadata>
Created by potrace 1.14, written by Peter Selinger 2001-2017
</metadata>
<g transform="translate(0.000000,700.000000) scale(0.100000,-0.100000)"
fill="#000000" stroke="none">
<path d="M2965 5374 c-609 -94 -1125 -472 -1391 -1019 -443 -914 -62 -2017
851 -2460 248 -121 463 -174 742 -182 248 -8 400 12 634 83 l85 26 73 -47
c336 -217 799 -220 1139 -8 168 104 303 251 391 423 93 182 126 334 118 535
-14 343 -178 645 -458 841 l-76 54 -6 93 c-21 316 -163 684 -370 957 -59 78
-219 242 -302 310 -253 207 -577 348 -908 395 -128 18 -402 18 -522 -1z m509
-440 c570 -95 1046 -568 1141 -1131 l7 -43 -84 0 c-488 0 -918 -332 -1045
-808 -23 -85 -26 -118 -27 -262 -1 -106 4 -185 12 -220 22 -89 53 -181 78
-232 13 -26 20 -49 16 -52 -4 -2 -50 -12 -102 -21 -128 -23 -345 -23 -475 0
-572 100 -1018 532 -1142 1108 -25 116 -25 438 0 554 133 618 633 1065 1255
1123 106 10 247 3 366 -16z m1160 -1491 c-50 -497 -305 -888 -735 -1131 -31
-18 -62 -32 -68 -32 -17 0 -67 111 -92 205 -29 110 -29 289 -1 396 42 157 116
283 234 395 157 151 334 222 556 223 l112 1 -6 -57z m572 -290 c99 -137 146
-288 146 -468 0 -146 -22 -239 -86 -370 -103 -208 -297 -366 -524 -427 -93
-24 -285 -29 -377 -9 -60 13 -183 57 -198 71 -5 4 12 19 36 33 88 52 214 152
315 251 275 268 455 604 527 984 l18 94 49 -49 c28 -26 70 -76 94 -110z"/>
</g>
</svg>
